<?xml version="1.0" encoding="UTF-8" standalone="no" ?>
<!DOCTYPE svg PUBLIC "-//W3C//DTD SVG 1.1//EN" "http://www.w3.org/Graphics/SVG/1.1/DTD/svg11.dtd">
<svg xmlns="http://www.w3.org/2000/svg" xmlns:xlink="http://www.w3.org/1999/xlink" version="1.1" width="640" height="640" viewBox="0 0 640 640" xml:space="preserve">
<desc>Created with Fabric.js 5.3.0</desc>
<defs>
</defs>
<g transform="matrix(0.2177838275 0.1207195468 -0.7445647615 1.3432303866 170.3315514005 232.1097096702)" id="0ooVEI1dHar-S9O22wuh9"  >
<path style="stroke: rgb(7,23,175); stroke-width: 0; stroke-dasharray: none; stroke-linecap: butt; stroke-dashoffset: 0; stroke-linejoin: miter; stroke-miterlimit: 4; fill: rgb(15,111,244); fill-rule: nonzero; opacity: 1;" vector-effect="non-scaling-stroke"  transform=" translate(0, 0)" d="M -176.41739 -127.68178 C -176.41739 -154.59771 -41.83967000000001 -176.41739 124.17036000000002 -176.41739 L 124.17036000000002 -176.41739 L 124.17036000000002 -176.41739 C 153.02560000000003 -176.41739 176.41739 -172.62478000000002 176.41739 -167.94635000000002 L 176.41739 127.68178999999995 L 176.41739 127.68178999999995 C 176.41739 154.59771999999995 41.83967000000001 176.41739999999996 -124.17036000000002 176.41739999999996 L -124.17036000000002 176.41739999999996 L -124.17036000000002 176.41739999999996 C -153.02560000000003 176.41739999999996 -176.41739 172.62478999999996 -176.41739 167.94635999999997 z" stroke-linecap="round" />
</g>
<g transform="matrix(0.2177838275 0.1207195468 -0.7445647615 1.3432303866 469.6684481994 410.1163756314)" id="P6NaN8IrYdS1kR0uIGKJM"  >
<path style="stroke: rgb(7,23,175); stroke-width: 0; stroke-dasharray: none; stroke-linecap: butt; stroke-dashoffset: 0; stroke-linejoin: miter; stroke-miterlimit: 4; fill: rgb(15,111,244); fill-rule: nonzero; opacity: 1;" vector-effect="non-scaling-stroke"  transform=" translate(0, -0.000005)" d="M -176.41739 -127.68178 C -176.41739 -154.59771 -41.83967000000001 -176.41739 124.17036000000002 -176.41739 L 124.17036000000002 -176.41739 L 124.17036000000002 -176.41739 C 153.02560000000003 -176.41739 176.41739 -172.62478000000002 176.41739 -167.94635000000002 L 176.41739 127.68178999999995 L 176.41739 127.68178999999995 C 176.41739 154.59771999999995 41.83967000000001 176.41739999999996 -124.17036000000002 176.41739999999996 L -124.17036000000002 176.41739999999996 L -124.17036000000002 176.41739999999996 C -153.02560000000003 176.41739999999996 -176.41739 172.62478999999996 -176.41739 167.94635999999997 z" stroke-linecap="round" />
</g>
<g transform="matrix(1 0 0 1 320 320)" id="6m1vbfRFymRIHcewUVWOn"  >
<path style="stroke: rgb(133,178,241); stroke-width: 0; stroke-dasharray: none; stroke-linecap: butt; stroke-dashoffset: 0; stroke-linejoin: miter; stroke-miterlimit: 4; fill: rgb(15,111,244); fill-rule: nonzero; opacity: 1;" vector-effect="non-scaling-stroke"  transform=" translate(-70.6782612521, -70.6782612521)" d="M 70.67826 0 C 109.69265999999999 0 141.35652 31.66386 141.35652 70.67826 C 141.35652 109.69265999999999 109.69265999999999 141.35652 70.67826 141.35652 C 31.663859999999993 141.35652 0 109.69265999999999 0 70.67826 C 0 31.663859999999993 31.66386 0 70.67826 0 z" stroke-linecap="round" />
</g>
</svg>