<?xml version="1.0" encoding="UTF-8" standalone="no" ?>
<!DOCTYPE svg PUBLIC "-//W3C//DTD SVG 1.1//EN" "http://www.w3.org/Graphics/SVG/1.1/DTD/svg11.dtd">
<svg xmlns="http://www.w3.org/2000/svg" xmlns:xlink="http://www.w3.org/1999/xlink" version="1.1" width="640" height="640" viewBox="0 0 640 640" xml:space="preserve">
<desc>Created with Fabric.js 5.3.0</desc>
<defs>
</defs>
<g transform="matrix(5.2037032884 0 0 5.2037032884 320.7020885209 320.7149621894)" id="-bP7LIVOCfq14UIfXw1k4"  >
<path style="stroke: rgb(135,178,12); stroke-width: 0; stroke-dasharray: none; stroke-linecap: butt; stroke-dashoffset: 0; stroke-linejoin: miter; stroke-miterlimit: 4; fill: rgb(18,18,18); fill-rule: nonzero; opacity: 1;" vector-effect="non-scaling-stroke"  transform=" translate(0, 0)" d="M -61.49467 -35.40469 C -61.49467 -49.813790000000004 -49.81379 -61.49467 -35.40469 -61.49467 L 35.40469 -61.49467 L 35.40469 -61.49467 C 49.813790000000004 -61.49467 61.49467 -49.81379 61.49467 -35.40469 L 61.49467 35.40469 L 61.49467 35.40469 C 61.49467 49.813790000000004 49.81379 61.49467 35.40469 61.49467 L -35.40469 61.49467 L -35.40469 61.49467 C -49.813790000000004 61.49467 -61.49467 49.81379 -61.49467 35.40469 z" stroke-linecap="round" />
</g>
<g transform="matrix(0.196518263 0.108931852 -0.6718615212 1.2120702692 184.378113829 240.7150156132)" id="0ooVEI1dHar-S9O22wuh9"  >
<path style="stroke: rgb(7,23,175); stroke-width: 0; stroke-dasharray: none; stroke-linecap: butt; stroke-dashoffset: 0; stroke-linejoin: miter; stroke-miterlimit: 4; fill: rgb(15,111,244); fill-rule: nonzero; opacity: 1;" vector-effect="non-scaling-stroke"  transform=" translate(0, 0)" d="M -176.41739 -127.68178 C -176.41739 -154.59771 -41.83967000000001 -176.41739 124.17036000000002 -176.41739 L 124.17036000000002 -176.41739 L 124.17036000000002 -176.41739 C 153.02560000000003 -176.41739 176.41739 -172.62478000000002 176.41739 -167.94635000000002 L 176.41739 127.68178999999995 L 176.41739 127.68178999999995 C 176.41739 154.59771999999995 41.83967000000001 176.41739999999996 -124.17036000000002 176.41739999999996 L -124.17036000000002 176.41739999999996 L -124.17036000000002 176.41739999999996 C -153.02560000000003 176.41739999999996 -176.41739 172.62478999999996 -176.41739 167.94635999999997 z" stroke-linecap="round" />
</g>
<g transform="matrix(0.196518263 0.108931852 -0.6718615212 1.2120702692 455.6218861617 399.2849843787)" id="P6NaN8IrYdS1kR0uIGKJM"  >
<path style="stroke: rgb(7,23,175); stroke-width: 0; stroke-dasharray: none; stroke-linecap: butt; stroke-dashoffset: 0; stroke-linejoin: miter; stroke-miterlimit: 4; fill: rgb(15,111,244); fill-rule: nonzero; opacity: 1;" vector-effect="non-scaling-stroke"  transform=" translate(0, 0)" d="M -176.41739 -127.68178 C -176.41739 -154.59771 -41.83967000000001 -176.41739 124.17036000000002 -176.41739 L 124.17036000000002 -176.41739 L 124.17036000000002 -176.41739 C 153.02560000000003 -176.41739 176.41739 -172.62478000000002 176.41739 -167.94635000000002 L 176.41739 127.68178999999995 L 176.41739 127.68178999999995 C 176.41739 154.59771999999995 41.83967000000001 176.41739999999996 -124.17036000000002 176.41739999999996 L -124.17036000000002 176.41739999999996 L -124.17036000000002 176.41739999999996 C -153.02560000000003 176.41739999999996 -176.41739 172.62478999999996 -176.41739 167.94635999999997 z" stroke-linecap="round" />
</g>
<g transform="matrix(0.9023547124 0 0 0.9023547124 319.4321437263 320.0232332699)" id="6m1vbfRFymRIHcewUVWOn"  >
<path style="stroke: rgb(133,178,241); stroke-width: 0; stroke-dasharray: none; stroke-linecap: butt; stroke-dashoffset: 0; stroke-linejoin: miter; stroke-miterlimit: 4; fill: rgb(15,111,244); fill-rule: nonzero; opacity: 1;" vector-effect="non-scaling-stroke"  transform=" translate(0, 0)" d="M 0 -70.67826 C 39.0144 -70.67826 70.67826 -39.014399999999995 70.67826 0 C 70.67826 39.0144 39.014399999999995 70.67826 0 70.67826 C -39.0144 70.67826 -70.67826 39.014399999999995 -70.67826 0 C -70.67826 -39.0144 -39.014399999999995 -70.67826 0 -70.67826 z" stroke-linecap="round" />
</g>
</svg>